<?xml version="1.0" standalone="no"?>
<!DOCTYPE svg PUBLIC "-//W3C//DTD SVG 20010904//EN"
 "http://www.w3.org/TR/2001/REC-SVG-20010904/DTD/svg10.dtd">
<svg version="1.0" xmlns="http://www.w3.org/2000/svg"
 width="260.000000pt" height="260.000000pt" viewBox="0 0 260.000000 260.000000"
 preserveAspectRatio="xMidYMid meet">
<metadata>
Created by potrace 1.11, written by Peter Selinger 2001-2013
</metadata>
<g transform="translate(0.000000,260.000000) scale(0.100000,-0.100000)"
fill="#000000" stroke="none">
<path d="M1235 2503 c-32 -54 -73 -121 -91 -149 l-32 -52 -107 29 c-59 17
-110 28 -112 25 -2 -2 3 -80 11 -172 31 -341 34 -379 26 -387 -4 -5 -92 39
-194 98 -103 59 -190 105 -193 101 -3 -3 -1 -50 5 -103 21 -185 24 -231 15
-236 -5 -3 -101 -22 -212 -41 -112 -20 -206 -38 -208 -40 -3 -2 61 -105 142
-227 81 -123 149 -228 151 -233 2 -6 -46 -64 -107 -129 -110 -117 -111 -117
-84 -127 14 -5 34 -10 44 -10 16 0 374 -63 429 -75 12 -3 22 -10 22 -15 0 -5
-34 -51 -75 -102 -41 -51 -75 -96 -75 -100 0 -4 151 -8 335 -8 l335 0 2 -266
c3 -242 5 -268 21 -278 12 -8 22 -8 35 0 15 10 17 36 20 278 l2 266 335 0
c224 0 335 3 335 10 0 6 -34 51 -75 101 -41 50 -75 95 -75 99 0 10 -5 9 285
61 126 22 232 42 234 45 2 2 -47 57 -108 123 l-112 120 152 231 c92 141 148
234 142 238 -6 4 -102 22 -213 41 -121 21 -204 39 -207 47 -2 6 3 76 11 154
18 164 19 180 8 180 -5 0 -91 -47 -192 -105 -101 -58 -186 -102 -190 -98 -7 8
-5 33 26 376 8 98 14 181 11 183 -2 2 -46 -7 -98 -21 -52 -14 -101 -25 -110
-25 -10 0 -49 54 -104 145 -48 80 -91 145 -95 145 -4 0 -33 -44 -65 -97z"/>
</g>
</svg>
